<svg width="6" height="12" viewBox="0 0 6 12" fill="none" xmlns="http://www.w3.org/2000/svg">
<path d="M6 6C6 5.82719 5.93865 5.6682 5.82209 5.54378L0.96319 0.179724C0.852761 0.062212 0.717791 0 0.558282 0C0.245399 0 0 0.269585 0 0.629032C0 0.801843 0.0613497 0.960829 0.159509 1.07834L4.62577 6L0.159509 10.9217C0.0613497 11.0392 0 11.1912 0 11.371C0 11.7304 0.245399 12 0.558282 12C0.717791 12 0.852761 11.9378 0.96319 11.8134L5.82209 6.45622C5.93865 6.32488 6 6.17281 6 6Z" fill="#333333"/>
</svg>
