<svg width="40" height="40" viewBox="0 0 40 40" fill="none" xmlns="http://www.w3.org/2000/svg">
<path fill-rule="evenodd" clip-rule="evenodd" d="M14.7311 8.61234C8.92733 12.0791 8.83465 12.1419 8.38377 12.9094C8.03922 13.4965 8.00137 13.9443 8.00078 17.4463L8 21.332L8.53653 21.7201C9.46776 22.3939 11.6354 23.5878 11.927 23.5878C12.081 23.5878 13.8724 22.5816 15.9077 21.3516C18.7422 19.6391 19.7269 19.1386 20.114 19.2131C20.392 19.2668 22.1306 20.227 23.9774 21.3468C25.8245 22.4666 27.5468 23.4379 27.8053 23.5052C28.4507 23.6735 31.7082 21.7519 31.8752 21.1043C31.9398 20.8547 31.9936 19.143 31.995 17.3005C31.9989 12.4103 32.3632 12.9106 26.05 9.13233C22.0137 6.7167 20.8007 6.08145 20.0993 6.01501C19.2672 5.93641 18.9703 6.08003 14.7311 8.61234ZM24.1294 11.9575C26.097 13.1369 27.8381 14.2966 27.9987 14.5346C28.4234 15.164 28.4213 19.4971 27.9962 19.6665C27.8247 19.735 26.2619 18.9289 24.2523 17.7358C19.722 15.0459 20.1255 15.0469 15.6877 17.7133C13.8332 18.8274 12.2259 19.739 12.1159 19.739C11.6664 19.739 11.4773 18.8349 11.5425 16.9968C11.5967 15.4681 11.6873 14.9999 12.0182 14.5373C12.5845 13.7454 19.2009 9.81316 19.9667 9.81316C20.3551 9.81316 21.7562 10.5349 24.1294 11.9575ZM8.0279 25.0388C8.08253 26.3713 8.18652 26.8637 8.51117 27.326C8.77222 27.6979 10.7874 29.0334 13.9741 30.9467C18.3407 33.5683 19.142 33.981 19.9013 33.9992C20.6925 34.018 21.2725 33.7249 25.7634 31.0387C28.5046 29.3989 30.943 27.8411 31.1822 27.5768C31.4212 27.3126 31.7025 26.7861 31.8073 26.4069C32.0416 25.5588 32.0588 23.5878 31.8317 23.5878C31.7406 23.5878 29.1724 25.0631 26.1249 26.8662C22.2535 29.1568 20.4004 30.1455 19.9743 30.1478C19.5402 30.15 17.8008 29.2204 13.9362 26.92C10.9506 25.1431 8.38416 23.6107 8.23295 23.5149C8.00312 23.3692 7.96956 23.6188 8.0279 25.0388Z" fill="white"/>
</svg>
