<svg width="44" height="44" viewBox="0 0 44 44" fill="none" xmlns="http://www.w3.org/2000/svg">
<rect width="44" height="44" rx="22" fill="black" fill-opacity="0.5"/>
<path d="M22.5 22C22.5 21.8272 22.4387 21.6682 22.3221 21.5438L17.4632 16.1797C17.3528 16.0622 17.2178 16 17.0583 16C16.7454 16 16.5 16.2696 16.5 16.629C16.5 16.8018 16.5613 16.9608 16.6595 17.0783L21.1258 22L16.6595 26.9217C16.5613 27.0392 16.5 27.1912 16.5 27.371C16.5 27.7304 16.7454 28 17.0583 28C17.2178 28 17.3528 27.9378 17.4632 27.8134L22.3221 22.4562C22.4387 22.3249 22.5 22.1728 22.5 22Z" fill="white"/>
<path d="M21.5 22C21.5 22.1728 21.5613 22.3318 21.6779 22.4562L26.5368 27.8203C26.6472 27.9378 26.7822 28 26.9417 28C27.2546 28 27.5 27.7304 27.5 27.371C27.5 27.1982 27.4387 27.0392 27.3405 26.9217L22.8742 22L27.3405 17.0783C27.4387 16.9608 27.5 16.8088 27.5 16.629C27.5 16.2696 27.2546 16 26.9417 16C26.7822 16 26.6472 16.0622 26.5368 16.1866L21.6779 21.5438C21.5613 21.6751 21.5 21.8272 21.5 22Z" fill="white"/>
</svg>
